<?xml version="1.0" encoding="UTF-8"?>
<svg version="1.1" xmlns="http://www.w3.org/2000/svg" width="512" height="512">
<path d="M0 0 C1.06293274 -0.00671722 2.12586548 -0.01343445 3.2210083 -0.02035522 C6.7187575 -0.03927979 10.21631418 -0.04325688 13.71411133 -0.04541016 C16.16018247 -0.05184269 18.60625284 -0.05857139 21.05232239 -0.06558228 C26.17568748 -0.07754177 31.29898522 -0.08126453 36.42236328 -0.08007812 C42.96096299 -0.0798752 49.49912682 -0.10715715 56.03762341 -0.14162254 C61.08995006 -0.16395209 66.1421729 -0.16791378 71.19454384 -0.16685867 C73.60368664 -0.16920629 76.01283268 -0.177982 78.4219265 -0.19352341 C98.59285776 -0.31145124 115.07579633 1.4369501 130.42114258 16.04052734 C140.71032922 26.97382037 147.30844692 40.26154202 147.18701172 55.47021484 C147.18113541 56.69498535 147.17525909 57.91975586 147.16920471 59.18164062 C147.16082077 60.49632324 147.15243683 61.81100586 147.14379883 63.16552734 C147.14433813 65.95200143 147.15308516 68.73844172 147.16137695 71.52490234 C147.17363096 75.91655414 147.17519305 80.3072289 147.1328125 84.69873047 C147.09937613 88.25831165 147.10486172 91.81597343 147.13638115 95.37554932 C147.14368271 97.38359366 147.10989814 99.39165187 147.07545471 101.39941406 C146.92126254 107.83031271 146.92126254 107.83031271 149.88293457 113.19444275 C151.91659515 114.46550935 153.89466031 115.38426248 156.10864258 116.29052734 C161.39280003 121.03402775 163.12162243 126.46669585 164.00317383 133.38818359 C164.15130932 137.464653 163.39745534 140.42408907 162.10864258 144.29052734 C161.14844257 147.39500819 160.78964047 148.6641424 162.28833008 151.60693359 C162.8477832 152.34814453 163.40723633 153.08935547 163.98364258 153.85302734 C168.9474471 160.51376039 168.79791298 167.13416096 168.10864258 175.29052734 C166.14353938 182.51014561 162.07997604 188.01461235 156.17114258 192.54052734 C150.03233598 196.04841683 145.02967112 196.56736849 138.10864258 196.29052734 C138.14344727 197.04333984 138.17825195 197.79615234 138.21411133 198.57177734 C138.81213506 222.03708951 130.38036968 243.53340152 115.10864258 261.29052734 C114.35196289 262.25345703 113.5952832 263.21638672 112.81567383 264.20849609 C109.9077959 267.70072429 106.51127044 270.40446767 102.92114258 273.16552734 C102.29272461 273.66310547 101.66430664 274.16068359 101.0168457 274.67333984 C96.37114472 278.29052734 96.37114472 278.29052734 94.10864258 278.29052734 C94.31098093 280.52228911 94.54666532 282.75104228 94.79614258 284.97802734 C94.98756836 286.84007812 94.98756836 286.84007812 95.18286133 288.73974609 C96.36208138 293.26257742 97.24066667 294.61989344 101.10864258 297.29052734 C111.65317482 300.8298605 123.32687647 301.86655824 134.31030273 303.51464844 C158.123957 307.1115286 180.0582632 315.18193614 195.60864258 334.47802734 C201.71745398 343.11731353 206.43906865 352.64780102 211.36206055 361.99169922 C214.33903411 367.61440914 217.38368705 373.20033449 220.42114258 378.79052734 C221.52170395 380.8216143 222.62199294 382.85284888 223.72192383 384.88427734 C224.18381104 385.73699219 224.64569824 386.58970703 225.12158203 387.46826172 C225.44731201 388.06960938 225.77304199 388.67095703 226.10864258 389.29052734 C230.0599691 385.43314747 233.82406609 381.58317464 237.23364258 377.22802734 C240.84920328 372.73017112 244.65141511 368.48961396 248.60864258 364.29052734 C253.23505289 359.3776664 257.58136616 354.33928925 261.80004883 349.06787109 C264.46143715 345.86609935 267.26326504 342.82817817 270.10864258 339.79052734 C274.53876402 335.0606702 278.68585415 330.1887305 282.74145508 325.13037109 C286.0292684 321.1860802 289.51631416 317.44161248 293.03637695 313.70458984 C294.40662629 312.24517421 295.75841143 310.76848306 297.10864258 309.29052734 C297.6496312 308.75470976 298.19061983 308.21889217 298.74800205 307.66683769 C300.80850673 304.06823945 300.51650272 300.45717452 300.48045349 296.42190552 C300.48427805 295.51617259 300.48810262 294.61043966 300.49204308 293.67726028 C300.50134515 290.63559592 300.48932582 287.59438471 300.47753906 284.55273438 C300.48000637 282.37471324 300.48384407 280.1966933 300.48895264 278.01867676 C300.49729925 273.32491228 300.4964757 268.63126908 300.48876762 263.93750381 C300.47720285 256.51718767 300.48933206 249.09702816 300.50538635 241.67672729 C300.5416119 223.24453899 300.54790988 204.81234528 300.54528809 186.38012695 C300.54350145 172.05926282 300.55066734 157.7385217 300.58526665 143.41769302 C300.60208385 136.03984169 300.60024567 128.66230096 300.58444393 121.28445077 C300.57865415 116.69528252 300.5893744 112.1062621 300.60469055 107.51712036 C300.6084224 105.38783718 300.60529259 103.25852934 300.59482002 101.12926865 C300.58147994 98.22350973 300.59263294 95.31883163 300.60984802 92.41311646 C300.59513786 91.14773896 300.59513786 91.14773896 300.58013052 89.85679829 C300.64538946 84.53413041 301.60428636 81.53274306 305.10864258 77.29052734 C308.07462373 74.96011358 311.20635492 74.99467781 314.91333008 74.82958984 C321.07444968 76.1232057 326.40861715 81.91613931 331.10864258 85.85302734 C336.46665968 90.30741521 341.85541926 94.70425585 347.35864258 98.97802734 C353.11724952 103.45960033 358.72009156 108.10013708 364.25317383 112.85693359 C365.93443275 114.28979858 367.63347885 115.70296345 369.37036133 117.06787109 C373.54017156 120.36350727 375.70921556 123.13014022 377.10864258 128.29052734 C377.35932632 134.52492303 375.904159 138.28121633 372.10864258 143.29052734 C370.17988699 145.1231199 368.29085896 146.80934093 366.23364258 148.47802734 C365.66774414 148.94724609 365.1018457 149.41646484 364.51879883 149.89990234 C359.8629914 153.73710626 355.11294637 157.45449551 350.3503418 161.15771484 C345.71239848 164.7763158 341.21452481 168.53912203 336.74169922 172.35888672 C324.6081694 182.70823911 324.6081694 182.70823911 320.00851059 185.61998463 C317.94997039 187.111269 317.94997039 187.111269 317.60083389 189.31511211 C317.59714672 190.09402719 317.59345955 190.87294226 317.58966064 191.67546082 C317.57574783 192.57148514 317.56183502 193.46750946 317.54750061 194.39068604 C317.55253098 195.37107849 317.55756134 196.35147095 317.56274414 197.36157227 C317.55240646 198.39588882 317.54206879 199.43020538 317.53141785 200.49586487 C317.50187577 203.92106539 317.50048823 207.34567792 317.49926758 210.77099609 C317.48429369 213.14326614 317.46756823 215.51552574 317.44915771 217.88777161 C317.4053835 224.13655055 317.38546269 230.38518886 317.37042236 236.63409424 C317.35088764 243.00858919 317.30891358 249.38293143 317.26879883 255.75732422 C317.19338755 268.2683403 317.14240044 280.77933312 317.10864258 293.29052734 C318.73721191 292.80592041 318.73721191 292.80592041 320.39868164 292.31152344 C330.20406292 289.61304328 340.08847783 290.68022092 349.10864258 295.29052734 C358.07356735 300.64413966 364.7906467 308.35437839 368.10864258 318.29052734 C370.75868452 329.06736456 369.65477243 340.36232988 364.17114258 350.04052734 C357.71676097 359.66377702 349.27428161 368.14829724 341.46411133 376.65380859 C339.13312519 379.26312144 336.92537071 381.93865554 334.73364258 384.66552734 C330.86645394 389.46193445 326.75883542 393.96094194 322.55053711 398.45410156 C319.43324922 401.80134519 316.47297775 405.2204864 313.60864258 408.79052734 C309.28314354 414.17773978 304.63584245 419.2083645 299.92504883 424.25537109 C296.98409492 427.40928043 294.13390692 430.63596329 291.31567383 433.89990234 C289.25077733 436.27887695 289.25077733 436.27887695 285.29614258 436.60302734 C282.27787038 436.54883933 281.2468843 436.37692842 278.60864258 434.72802734 C276.5421336 431.36995025 276.75239128 429.18857931 277.10864258 425.29052734 C278.72583008 422.58740234 278.72583008 422.58740234 280.98364258 420.04052734 C281.80606445 419.09693359 282.62848633 418.15333984 283.47583008 417.18115234 C284.77907227 415.75029297 284.77907227 415.75029297 286.10864258 414.29052734 C287.35000977 412.92154297 287.35000977 412.92154297 288.61645508 411.52490234 C290.2888983 409.68993329 291.96605276 407.85924797 293.64770508 406.03271484 C296.01904153 403.39036852 298.26117255 400.68358568 300.48364258 397.91552734 C304.47322376 392.95531461 308.72431348 388.30062042 313.1237793 383.70507812 C315.73166194 380.94586434 317.3859118 378.73598891 319.10864258 375.29052734 C309.20864258 365.39052734 299.30864258 355.49052734 289.10864258 345.29052734 C284.91972087 348.78129544 282.17654039 351.18358428 278.98364258 355.29052734 C275.51848573 359.6307238 271.90885483 363.7417704 268.10864258 367.79052734 C264.45934066 371.68586247 260.95161907 375.62391896 257.60864258 379.79052734 C253.72627772 384.6293142 249.60336512 389.18341351 245.35668945 393.70068359 C242.95675887 396.25888686 240.63692501 398.83648278 238.42504883 401.56005859 C235.45298193 405.06338872 232.77214674 406.90621412 228.15942383 407.57177734 C223.43521013 407.7877414 220.12791945 406.93959619 216.10864258 404.29052734 C212.88482374 400.65428399 210.57319131 396.72751846 208.35083008 392.43505859 C207.83372215 391.45258904 207.83372215 391.45258904 207.3061676 390.45027161 C206.57274675 389.055916 205.84158275 387.66037129 205.11251831 386.26373291 C203.59373037 383.35672245 202.06073438 380.4572987 200.52824402 377.55749512 C199.40146536 375.42528714 198.27616231 373.29230585 197.15112305 371.15917969 C186.2110416 350.43037189 175.79156525 332.00251834 151.83642578 324.5871582 C144.12675472 322.37150686 136.32063738 320.95851349 128.42114258 319.60302734 C127.13530273 319.37808594 125.84946289 319.15314453 124.5246582 318.92138672 C121.386762 318.37312976 118.24812537 317.82961106 115.10864258 317.29052734 C114.81602539 318.06235352 114.5234082 318.83417969 114.22192383 319.62939453 C107.82794846 334.91323916 91.19718658 345.3706103 76.63989258 351.82958984 C54.6205642 360.62703179 31.45223352 360.07388527 9.57348633 350.79052734 C-3.34673581 344.71703881 -14.47209661 335.61145772 -23.01318359 324.15209961 C-23.82211311 323.06832787 -23.82211311 323.06832787 -24.64738464 321.96266174 C-25.26315117 321.13495522 -25.26315117 321.13495522 -25.89135742 320.29052734 C-33.08228248 322.01158802 -40.26735164 323.75566784 -47.44897461 325.51513672 C-49.88781767 326.10985063 -52.32790948 326.69946941 -54.76928711 327.28369141 C-58.29783971 328.12904375 -61.82135058 328.99320755 -65.34448242 329.86083984 C-66.41998352 330.11423126 -67.49548462 330.36762268 -68.60357666 330.62869263 C-83.17514397 334.26841016 -95.21975811 341.00994895 -103.76635742 353.60302734 C-109.12524178 362.60190862 -112.00887305 372.48323682 -112.0226593 382.95840454 C-112.02666748 384.06312607 -112.03067566 385.1678476 -112.0348053 386.30604553 C-112.03427658 387.50313644 -112.03374786 388.70022736 -112.03320312 389.93359375 C-112.03853618 391.88630245 -112.0438752 393.83901114 -112.04943979 395.7917192 C-112.05462259 397.88225077 -112.05754556 399.97277611 -112.06002235 402.06331253 C-112.06595227 406.42517266 -112.08250904 410.78695208 -112.10136414 415.14877319 C-112.10770047 416.64407535 -112.1140261 418.13937755 -112.1203413 419.63467979 C-112.12350711 420.3832074 -112.12667292 421.13173501 -112.12993467 421.90294528 C-112.17197478 432.05165665 -112.20501349 442.20032833 -112.21728516 452.34912109 C-112.2256594 459.20447457 -112.24811948 466.05962591 -112.28664082 472.91487825 C-112.30641029 476.54011138 -112.31880292 480.1650423 -112.31380653 483.79033279 C-112.30830688 487.8292545 -112.3335315 491.86742022 -112.36132812 495.90625 C-112.35472672 497.10738937 -112.34812531 498.30852875 -112.34132385 499.54606628 C-112.3537915 500.64514816 -112.36625916 501.74423004 -112.37910461 502.87661743 C-112.38149297 503.8311764 -112.38388132 504.78573536 -112.38634205 505.76922035 C-113.03911662 509.02822033 -114.34461855 510.22558348 -116.89135742 512.29052734 C-118.89135742 512.85693359 -118.89135742 512.85693359 -120.89135742 512.85302734 C-121.55135742 512.87494141 -122.21135742 512.89685547 -122.89135742 512.91943359 C-126.26647084 511.85811863 -127.08955328 510.35152483 -128.89135742 507.29052734 C-129.49826398 503.14606434 -129.42696485 499.02586426 -129.39306641 494.84375 C-129.39846939 493.57964294 -129.40387238 492.31553589 -129.40943909 491.01312256 C-129.42338985 487.5495371 -129.41222073 484.08644878 -129.39572787 480.62289095 C-129.38183669 476.98372832 -129.38834321 473.34459342 -129.39186096 469.70541382 C-129.39456332 463.58380176 -129.38109719 457.46238569 -129.35791016 451.34082031 C-129.33141897 444.29895773 -129.3295152 437.25742523 -129.34129852 430.21553004 C-129.35215257 423.41265055 -129.34582231 416.60988854 -129.33174324 409.80701828 C-129.32603705 406.92782128 -129.32602353 404.04871179 -129.33080864 401.1695137 C-129.37532057 365.11932397 -129.37532057 365.11932397 -122.07885742 351.85302734 C-121.72629883 351.18400391 -121.37374023 350.51498047 -121.01049805 349.82568359 C-118.39172786 344.95885842 -115.58945368 340.41928798 -111.89135742 336.29052734 C-111.30999023 335.62923828 -110.72862305 334.96794922 -110.12963867 334.28662109 C-98.20274586 321.53718395 -82.52684279 316.36845422 -65.96557617 312.40771484 C-64.56435162 312.06433852 -63.16338052 311.71992644 -61.76264954 311.37454224 C-58.11284457 310.47665046 -54.46060567 309.58916112 -50.80743408 308.70507812 C-44.94498634 307.28574698 -39.08522872 305.85561844 -33.22788429 304.41537857 C-31.19800836 303.91870884 -29.1663687 303.42983413 -27.13444519 302.94161987 C-16.85964728 300.79346663 -16.85964728 300.79346663 -8.00073242 295.56005859 C-5.38371127 290.20622307 -5.84521113 284.00740915 -6.89135742 278.29052734 C-9.33258176 275.02983099 -12.43159148 273.36227426 -15.89135742 271.29052734 C-34.43064593 256.91013136 -45.83399211 234.33835812 -48.89135742 211.29052734 C-48.95792054 208.65462777 -48.98703153 206.04904139 -48.95385742 203.41552734 C-48.9493457 202.72716797 -48.94483398 202.03880859 -48.94018555 201.32958984 C-48.92852078 199.64986399 -48.91059013 197.97018359 -48.89135742 196.29052734 C-49.80014648 196.37753906 -49.80014648 196.37753906 -50.72729492 196.46630859 C-57.88968249 196.85197562 -62.98616547 195.39245598 -68.89135742 191.29052734 C-75.50348323 185.34955716 -79.17685155 178.51992003 -79.88745117 169.61474609 C-79.898955 162.76996581 -77.88027973 157.59502657 -74.01245117 152.01708984 C-72.71283249 150.17398631 -72.71283249 150.17398631 -71.89135742 147.29052734 C-72.65253303 145.37104104 -73.41387219 143.45161921 -74.17651367 141.53271484 C-76.02470443 135.73565748 -75.35383456 129.82467154 -73.00073242 124.27490234 C-69.48463762 117.98554967 -65.31587825 114.3971949 -58.89135742 111.29052734 C-58.88771179 110.51759842 -58.88406616 109.74466949 -58.88031006 108.94831848 C-58.84219899 101.60873874 -58.78508921 94.26965373 -58.70745468 86.93039417 C-58.66820463 83.15857702 -58.63590767 79.38698547 -58.62036133 75.61499023 C-58.6050444 71.96421997 -58.57034033 68.31407093 -58.5230484 64.66357994 C-58.50838745 63.28162777 -58.50032535 61.89958682 -58.49947357 60.51755714 C-58.47957476 44.39722854 -54.12868971 29.2114189 -42.92651367 17.19677734 C-30.55566463 5.60949456 -16.79688412 -0.01539751 0 0 Z M-30.89135742 28.29052734 C-39.56258114 38.81850317 -42.52565123 48.86673108 -42.28198242 62.39599609 C-42.27632263 63.60121414 -42.27066284 64.80643219 -42.26483154 66.048172 C-42.24262597 69.85854564 -42.19245743 73.66794288 -42.14135742 77.47802734 C-42.12127207 80.07762304 -42.10302489 82.67723363 -42.08666992 85.27685547 C-42.04281307 91.61507341 -41.97606049 97.95273059 -41.89135742 104.29052734 C-36.76462419 103.17404236 -31.6645412 102.0092551 -26.59057617 100.66943359 C-12.77658608 97.07834653 0.89879028 93.80535819 15.10864258 92.29052734 C15.97545654 92.19698975 16.84227051 92.10345215 17.73535156 92.00708008 C26.54157801 91.16264741 35.33366832 91.09025523 44.17114258 91.10302734 C44.94056183 91.10363159 45.70998108 91.10423584 46.50271606 91.1048584 C55.53359233 91.12412126 64.54825132 91.18746032 73.54614258 92.04052734 C74.65131226 92.13297729 74.65131226 92.13297729 75.77880859 92.22729492 C79.00846141 92.60442062 80.94456474 93.16602738 83.55395508 95.14599609 C85.8254644 98.2793092 85.58788513 100.52505017 85.10864258 104.29052734 C83.52738088 106.4467933 82.67908624 107.20112946 80.01489258 107.61865234 C75.74574171 107.48004355 71.52380167 107.24954623 67.27661133 106.79052734 C59.83449255 106.10294708 52.38887926 106.04664164 44.92114258 106.04052734 C43.80189392 106.03951523 43.80189392 106.03951523 42.66003418 106.03848267 C16.0753757 106.07641214 -9.76324201 110.55743608 -34.89135742 119.29052734 C-35.59583008 119.53448242 -36.30030273 119.7784375 -37.02612305 120.02978516 C-39.1950316 120.78977226 -41.35679801 121.56689596 -43.51635742 122.35302734 C-44.16781738 122.58626709 -44.81927734 122.81950684 -45.49047852 123.05981445 C-50.98355973 125.11775554 -55.59099224 127.33997958 -58.89135742 132.29052734 C-58.7407174 135.83056787 -58.29046028 137.76314142 -56.14135742 140.60302734 C-53.5644527 142.53570588 -52.07353545 142.94336475 -48.89135742 143.29052734 C-46.44346391 142.71810585 -46.44346391 142.71810585 -43.99682617 141.63037109 C-43.05363525 141.25154785 -42.11044434 140.87272461 -41.13867188 140.48242188 C-40.12893311 140.06847168 -39.11919434 139.65452148 -38.07885742 139.22802734 C-19.20377359 131.8435622 -0.00745268 127.53858607 20.10864258 125.29052734 C21.23786133 125.15904297 22.36708008 125.02755859 23.53051758 124.89208984 C61.35594572 121.26633637 100.72641828 127.42036211 135.55004883 142.54052734 C138.52742031 143.41328356 140.17460139 143.23201085 143.10864258 142.29052734 C145.34633412 140.48794249 146.76191391 138.98398467 148.04614258 136.41552734 C148.15174261 132.8251263 147.2046854 131.22498729 145.10864258 128.29052734 C137.10639314 123.15987381 127.60908055 120.51961004 118.6730957 117.51464844 C116.80489899 116.88353935 114.94106251 116.23956881 113.07739258 115.59521484 C111.9784668 115.22380371 110.87954102 114.85239258 109.74731445 114.46972656 C107.10864258 113.29052734 107.10864258 113.29052734 105.10864258 110.29052734 C105.13208008 108.02880859 105.13208008 108.02880859 105.48364258 105.60302734 C105.59450195 104.79478516 105.70536133 103.98654297 105.81958008 103.15380859 C105.9149707 102.53892578 106.01036133 101.92404297 106.10864258 101.29052734 C112.5370672 100.07058767 116.94342533 100.68185905 123.10864258 102.72802734 C123.88336914 102.97101563 124.6580957 103.21400391 125.45629883 103.46435547 C127.3449282 104.05892398 129.22748135 104.67273689 131.10864258 105.29052734 C131.18507746 97.78326991 131.23740352 90.27611388 131.2734375 82.76855469 C131.28846894 80.21773529 131.30889962 77.66694149 131.33496094 75.11621094 C131.3715923 71.43727271 131.38842603 67.75867799 131.40161133 64.07958984 C131.41709518 62.95001862 131.43257904 61.82044739 131.4485321 60.65664673 C131.45123026 47.79220989 127.68717051 36.92215954 118.73364258 27.47802734 C107.52364684 17.03011465 94.81229281 15.13677934 80.015625 15.14526367 C79.15576492 15.14190506 78.29590485 15.13854645 77.4099884 15.13508606 C74.59468096 15.12566244 71.77943352 15.12363734 68.96411133 15.12255859 C66.98789954 15.11934019 65.01168799 15.11597568 63.03547668 15.11247253 C58.90255176 15.10650283 54.76964768 15.10463042 50.63671875 15.10522461 C45.36826957 15.10532614 40.09995543 15.09167364 34.8315382 15.0744524 C30.75205382 15.06327719 26.67260153 15.06130709 22.59310341 15.06183434 C20.65204719 15.06066254 18.71098992 15.05628632 16.76994896 15.04850197 C-0.45467934 14.98588515 -17.98081435 15.07973908 -30.89135742 28.29052734 Z M317.10864258 96.29052734 C317.10864258 119.39052734 317.10864258 142.49052734 317.10864258 166.29052734 C322.14375646 162.9462724 322.14375646 162.9462724 326.85083008 159.29443359 C327.51703369 158.74182861 328.1832373 158.18922363 328.86962891 157.61987305 C329.56725342 157.03681396 330.26487793 156.45375488 330.98364258 155.85302734 C332.4845683 154.6077819 333.9858804 153.36300204 335.48754883 152.11865234 C336.63054443 151.17022461 336.63054443 151.17022461 337.79663086 150.20263672 C341.48848852 147.14934958 345.20293177 144.12412758 348.92114258 141.10302734 C349.5842041 140.56299072 350.24726563 140.0229541 350.93041992 139.46655273 C353.94838461 137.01489611 356.97166244 134.58992588 360.10864258 132.29052734 C358.77329498 128.28448455 356.11521463 126.73381837 352.85864258 124.29052734 C347.92245017 120.50590167 343.083467 116.64881807 338.35864258 112.60302734 C328.17554014 103.84550472 328.17554014 103.84550472 317.10864258 96.29052734 Z M-32.89135742 153.29052734 C-32.99390579 160.95439037 -33.06329797 168.61807252 -33.11108398 176.2824707 C-33.13103326 178.88247285 -33.15820252 181.48243112 -33.19311523 184.08227539 C-33.56474959 212.49590804 -29.46676474 234.52798378 -9.52026367 255.82177734 C5.38824576 270.118279 26.25834531 277.97113814 46.84692383 277.54052734 C69.81917852 275.77977968 89.43438696 266.21543857 104.70141602 248.984375 C121.94106309 228.23339106 122.56221638 204.95133508 122.29614258 179.35302734 C122.28106693 176.81983218 122.26738363 174.28662834 122.25512695 171.75341797 C122.2223538 165.5989289 122.17238341 159.44476957 122.10864258 153.29052734 C118.15372027 152.00011506 114.19590657 150.71879631 110.23754883 149.43896484 C108.57544373 148.89647095 108.57544373 148.89647095 106.87976074 148.34301758 C86.56115228 141.79055587 66.04601651 138.85620291 44.73364258 138.91552734 C43.56543472 138.91684158 43.56543472 138.91684158 42.37362671 138.91818237 C16.33525221 139.01398603 -8.54483028 144.02886071 -32.89135742 153.29052734 Z M-57.89135742 158.29052734 C-60.89624117 160.91980063 -62.38514758 163.05664085 -63.89135742 166.72802734 C-63.89135742 171.63970138 -61.91702865 175.17938352 -58.64135742 178.72802734 C-55.40414064 180.86687165 -55.40414064 180.86687165 -48.89135742 180.29052734 C-48.89135742 173.36052734 -48.89135742 166.43052734 -48.89135742 159.29052734 C-51.86135742 158.96052734 -54.83135742 158.63052734 -57.89135742 158.29052734 Z M138.10864258 159.29052734 C138.10864258 166.22052734 138.10864258 173.15052734 138.10864258 180.29052734 C144.28597923 180.29052734 145.56738677 180.00610028 150.10864258 176.29052734 C152.69508722 172.88112304 152.47367373 169.45188245 152.10864258 165.29052734 C150.70403561 162.41746763 149.36353259 160.54541735 147.10864258 158.29052734 C143.74352155 158.02485989 141.4435679 158.45679601 138.10864258 159.29052734 Z M10.10864258 287.29052734 C10.03387695 288.05236328 9.95911133 288.81419922 9.88208008 289.59912109 C8.75585717 298.44328331 6.56487868 304.69893406 -0.50854492 310.39990234 C-2.92741275 312.11298154 -5.36665013 313.73878037 -7.89135742 315.29052734 C-0.09485294 328.88800243 14.0174353 335.74236207 28.50317383 340.37646484 C44.45603526 344.42085225 61.62981052 342.01128752 76.10864258 334.29052734 C84.76826817 329.13355692 91.75409077 323.15572196 98.10864258 315.29052734 C96.80279251 312.67882721 95.53188818 312.41623629 92.92114258 311.16552734 C85.21746933 306.93462109 82.31356788 301.56067118 79.73364258 293.29052734 C79.17579631 291.29497972 78.62843719 289.29632303 78.10864258 287.29052734 C76.31620117 287.70625 76.31620117 287.70625 74.48754883 288.13037109 C72.88213949 288.49651708 71.27666733 288.86238774 69.67114258 289.22802734 C68.88803711 289.41042969 68.10493164 289.59283203 67.2980957 289.78076172 C49.8606813 293.7275016 32.4597435 293.06852193 15.31567383 287.87646484 C13.00596449 287.16222846 13.00596449 287.16222846 10.10864258 287.29052734 Z M304.10864258 325.29052734 C302.41893621 327.60774947 300.75837041 329.94471387 299.10864258 332.29052734 C303.47991286 336.71236369 307.85889215 341.12645377 312.2434082 345.53515625 C313.73512055 347.03694774 315.22503586 348.54052637 316.71313477 350.04589844 C318.84811906 352.205047 320.98941028 354.35775888 323.13208008 356.50927734 C323.79984467 357.1873645 324.46760925 357.86545166 325.15560913 358.56408691 C325.77610138 359.18473022 326.39659363 359.80537354 327.03588867 360.44482422 C327.58215912 360.99553589 328.12842957 361.54624756 328.69125366 362.11364746 C330.058048 363.50346504 330.058048 363.50346504 332.10864258 363.29052734 C333.52302664 361.7176605 334.86468659 360.07912739 336.17114258 358.41552734 C339.30912925 354.47149887 342.53204004 350.71244494 345.98364258 347.04052734 C351.48806423 340.9309075 353.70269335 336.13596762 353.38598633 327.77490234 C352.621985 320.93117216 350.06320193 316.40829247 344.98754883 311.76708984 C339.91891984 307.78384294 334.93860965 306.68031459 328.63598633 306.97412109 C317.53338709 308.36409101 310.7792231 316.97846873 304.10864258 325.29052734 Z " fill="#000000" transform="translate(131.891357421875,-0.29052734375)"/>
<path d="M0 0 C0.66 -0.02191406 1.32 -0.04382813 2 -0.06640625 C5.29591936 0.97000589 6.30725113 2.60212184 8 5.5625 C7.91399013 7.59192337 7.81465074 9.62370366 7.58862305 11.64233398 C7.03624343 17.73871103 7.49766426 22.42802625 11.09228516 27.53515625 C13.76861491 30.71514302 16.68087219 33.63416377 19.6875 36.5 C20.18666931 36.97589569 20.68583862 37.45179138 21.20013428 37.94210815 C31.36812521 47.83573775 31.36812521 47.83573775 44.49609375 51.69921875 C51.69130855 51.30634431 55.74254035 47.11128533 60.4375 42 C63.82884619 38.19996051 67.06025958 34.28315616 70.25 30.3125 C74.25399451 25.39062228 78.38374563 20.59420072 82.625 15.875 C83.24665039 15.15473633 83.86830078 14.43447266 84.50878906 13.69238281 C89.08121186 8.68864509 89.08121186 8.68864509 93.8125 8.0390625 C97.26537669 8.60607901 98.7508422 8.88081185 101 11.5625 C102 14.875 102 14.875 102 18.5625 C99.43322535 22.96610406 96.30401565 26.55695387 92.8125 30.25 C89.26663691 34.04097427 85.86796851 37.87929357 82.625 41.9375 C62.83973618 66.23704861 62.83973618 66.23704861 48 68.5625 C37.36107458 69.58888984 28.1904245 66.30281656 20 59.5625 C16.18723436 56.04008525 12.5779841 52.32105526 9 48.5625 C8.9906543 49.14217529 8.98130859 49.72185059 8.97167969 50.3190918 C8.9177593 52.96356946 8.83415871 55.60631893 8.75 58.25 C8.72873047 59.61801758 8.72873047 59.61801758 8.70703125 61.01367188 C8.55264617 65.25926159 8.35961717 67.94020594 6.203125 71.671875 C3.87486121 73.66988861 3.0146119 74.22509454 0 74.125 C-0.66 74.12628906 -1.32 74.12757813 -2 74.12890625 C-4.92828597 73.29960651 -6.09716885 71.91884431 -8 69.5625 C-8.50793457 66.64074707 -8.50793457 66.64074707 -8.51757812 63.20507812 C-8.53018677 61.91694214 -8.54279541 60.62880615 -8.55578613 59.30163574 C-8.54862631 57.89900159 -8.54042233 56.49637244 -8.53125 55.09375 C-8.53394555 53.65173074 -8.53782851 52.20971325 -8.54284668 50.7677002 C-8.54873889 47.74811467 -8.54018848 44.72900302 -8.52148438 41.70947266 C-8.49869405 37.84213798 -8.51181875 33.97591364 -8.53577423 30.10861969 C-8.55024026 27.13169005 -8.54562274 24.15502294 -8.53526306 21.17808533 C-8.53259795 19.7523536 -8.53585801 18.3265979 -8.54518127 16.90089417 C-8.55535798 14.90724148 -8.53709189 12.91350504 -8.51757812 10.91992188 C-8.51439575 9.78615112 -8.51121338 8.65238037 -8.50793457 7.48425293 C-7.68012467 2.72250576 -4.89283933 -0.00955633 0 0 Z " fill="#000000" transform="translate(300,438.4375)"/>
<path d="M0 0 C0.99 0.03287109 0.99 0.03287109 2 0.06640625 C2.66 0.06511719 3.32 0.06382812 4 0.0625 C6.92828597 0.89179974 8.09716885 2.27256194 10 4.62890625 C10.50793457 7.55065918 10.50793457 7.55065918 10.51757812 10.98632812 C10.53018677 12.27446411 10.54279541 13.5626001 10.55578613 14.88977051 C10.54862631 16.29240466 10.54042233 17.69503381 10.53125 19.09765625 C10.53394555 20.53967551 10.53782851 21.981693 10.54284668 23.42370605 C10.54873889 26.44329158 10.54018848 29.46240323 10.52148438 32.48193359 C10.49869405 36.34926827 10.51181875 40.21549261 10.53577423 44.08278656 C10.55024026 47.0597162 10.54562274 50.03638331 10.53526306 53.01332092 C10.53259795 54.43905265 10.53585801 55.86480835 10.54518127 57.29051208 C10.55535798 59.28416477 10.53709189 61.27790121 10.51757812 63.27148438 C10.51280457 64.9721405 10.51280457 64.9721405 10.50793457 66.70715332 C9.89013322 70.26088445 8.80409631 71.43394805 6 73.62890625 C4 74.1953125 4 74.1953125 2 74.19140625 C1.01 74.22427734 1.01 74.22427734 0 74.2578125 C-3.14160418 73.26992525 -4.20033235 71.32051799 -6 68.62890625 C-6.50793457 65.66955566 -6.50793457 65.66955566 -6.51757812 62.35742188 C-6.53018677 61.11263062 -6.54279541 59.86783936 -6.55578613 58.58532715 C-6.54862605 57.2352644 -6.54042199 55.88520683 -6.53125 54.53515625 C-6.53394682 53.14180226 -6.53783083 51.74845011 -6.54284668 50.35510254 C-6.54873295 47.43983989 -6.54020779 44.52506865 -6.52148438 41.60986328 C-6.49869426 37.88052504 -6.51182217 34.15233832 -6.53577423 30.4230423 C-6.55025643 27.54729601 -6.54561537 24.67182092 -6.53526306 21.79606628 C-6.53260241 20.42140058 -6.53584225 19.04670992 -6.54518127 17.67207336 C-6.55538466 15.74818417 -6.53706471 13.82420818 -6.51757812 11.90039062 C-6.51439575 10.80738647 -6.51121338 9.71438232 -6.50793457 8.58825684 C-5.82218113 4.59289018 -4.04039175 1.27051381 0 0 Z " fill="#000000" transform="translate(85,438.37109375)"/>
<path d="M0 0 C1.5836851 0.54063733 3.16698791 1.08239523 4.75 1.625 C11.35135821 3.65007831 17.48571616 3.34881387 23.75 0.375 C27.47354812 -1.20034728 29.18174087 -1.21490063 33 0 C35.83336378 1.75863959 36.02887833 3.103962 36.9375 6.375 C37 10 37 10 35.75 12.6875 C28.69281009 18.62195515 19.0247792 20.28755424 10 20 C2.36186649 18.99584883 -4.68715251 17.55112261 -11 13 C-12.54586876 9.90826248 -12.29359521 7.40570448 -12 4 C-8.16834665 -0.85342757 -5.88483041 -1.26103509 0 0 Z " fill="#000000" transform="translate(164,227)"/>
<path d="M0 0 C3.03160925 4.54741388 2.40791487 9.02337783 2.4375 14.375 C2.47037109 15.4165625 2.50324219 16.458125 2.53710938 17.53125 C2.59100962 25.19488506 2.59100962 25.19488506 -0.33984375 29.1875 C-3 31 -3 31 -6 31.625 C-10.20637007 30.7486729 -11.433531 29.45766358 -14 26 C-14.66612991 22.29610741 -14.562129 18.68858856 -14.4375 14.9375 C-14.42879883 13.44766602 -14.42879883 13.44766602 -14.41992188 11.92773438 C-14.28019598 3.62801628 -14.28019598 3.62801628 -12 0 C-7.65546469 -2.73085077 -4.61796746 -1.82976069 0 0 Z " fill="#000000" transform="translate(141,163)"/>
<path d="M0 0 C3.87869081 4.56155891 3.41476794 9.38867494 3.3125 15.0625 C3.31733398 16.40924805 3.31733398 16.40924805 3.32226562 17.78320312 C3.25959504 25.44610589 3.25959504 25.44610589 1 29 C-2.51253146 31.34168764 -3.86469356 31.49623677 -8 31 C-10.6640625 29.7265625 -10.6640625 29.7265625 -13 27 C-13.71533102 22.99212251 -13.60530589 19.05906328 -13.5 15 C-13.50257813 13.906875 -13.50515625 12.81375 -13.5078125 11.6875 C-13.39729884 2.66958543 -13.39729884 2.66958543 -10 -1 C-6.36298263 -2.75580149 -3.52882084 -1.65178848 0 0 Z " fill="#000000" transform="translate(223,163)"/>
</svg>
